<mxfile host="app.diagrams.net" modified="2021-06-23T11:11:48.664Z" agent="5.0 (Macintosh; Intel Mac OS X 10_14_0) AppleWebKit/537.36 (KHTML, like Gecko) Chrome/91.0.4472.101 Safari/537.36" etag="WpRAcu3BB6LQ3Jv1oXia" version="14.8.0" type="github">
  <diagram id="9w_OKdJAA5Zn8ipSTxTH" name="Page-1">
    <mxGraphModel dx="1186" dy="696" grid="1" gridSize="10" guides="1" tooltips="1" connect="1" arrows="1" fold="1" page="1" pageScale="1" pageWidth="827" pageHeight="1169" math="0" shadow="0">
      <root>
        <mxCell id="0" />
        <mxCell id="1" parent="0" />
        <mxCell id="Pv1H2nCwCAlQJ-ONCFIq-61" value="" style="group" vertex="1" connectable="0" parent="1">
          <mxGeometry x="70" y="40" width="660" height="215" as="geometry" />
        </mxCell>
        <mxCell id="Pv1H2nCwCAlQJ-ONCFIq-17" value="W" style="group" vertex="1" connectable="0" parent="Pv1H2nCwCAlQJ-ONCFIq-61">
          <mxGeometry width="330" height="30" as="geometry" />
        </mxCell>
        <mxCell id="Pv1H2nCwCAlQJ-ONCFIq-1" value="T0" style="rounded=0;whiteSpace=wrap;html=1;" vertex="1" parent="Pv1H2nCwCAlQJ-ONCFIq-17">
          <mxGeometry width="30" height="30" as="geometry" />
        </mxCell>
        <mxCell id="Pv1H2nCwCAlQJ-ONCFIq-2" value="T1" style="rounded=0;whiteSpace=wrap;html=1;" vertex="1" parent="Pv1H2nCwCAlQJ-ONCFIq-17">
          <mxGeometry x="30" width="30" height="30" as="geometry" />
        </mxCell>
        <mxCell id="Pv1H2nCwCAlQJ-ONCFIq-3" value="T2" style="rounded=0;whiteSpace=wrap;html=1;" vertex="1" parent="Pv1H2nCwCAlQJ-ONCFIq-17">
          <mxGeometry x="60" width="30" height="30" as="geometry" />
        </mxCell>
        <mxCell id="Pv1H2nCwCAlQJ-ONCFIq-4" value="T3" style="rounded=0;whiteSpace=wrap;html=1;" vertex="1" parent="Pv1H2nCwCAlQJ-ONCFIq-17">
          <mxGeometry x="90" width="30" height="30" as="geometry" />
        </mxCell>
        <mxCell id="Pv1H2nCwCAlQJ-ONCFIq-5" value="T4" style="rounded=0;whiteSpace=wrap;html=1;" vertex="1" parent="Pv1H2nCwCAlQJ-ONCFIq-17">
          <mxGeometry x="120" width="30" height="30" as="geometry" />
        </mxCell>
        <mxCell id="Pv1H2nCwCAlQJ-ONCFIq-6" value="T5" style="rounded=0;whiteSpace=wrap;html=1;" vertex="1" parent="Pv1H2nCwCAlQJ-ONCFIq-17">
          <mxGeometry x="150" width="30" height="30" as="geometry" />
        </mxCell>
        <mxCell id="Pv1H2nCwCAlQJ-ONCFIq-7" value="T6" style="rounded=0;whiteSpace=wrap;html=1;fillColor=#dae8fc;strokeColor=#6c8ebf;" vertex="1" parent="Pv1H2nCwCAlQJ-ONCFIq-17">
          <mxGeometry x="180" width="30" height="30" as="geometry" />
        </mxCell>
        <mxCell id="Pv1H2nCwCAlQJ-ONCFIq-8" value="T7" style="rounded=0;whiteSpace=wrap;html=1;fillColor=#dae8fc;strokeColor=#6c8ebf;" vertex="1" parent="Pv1H2nCwCAlQJ-ONCFIq-17">
          <mxGeometry x="210" width="30" height="30" as="geometry" />
        </mxCell>
        <mxCell id="Pv1H2nCwCAlQJ-ONCFIq-9" value="T8" style="rounded=0;whiteSpace=wrap;html=1;fillColor=#008a00;strokeColor=#005700;fontColor=#ffffff;" vertex="1" parent="Pv1H2nCwCAlQJ-ONCFIq-17">
          <mxGeometry x="240" width="30" height="30" as="geometry" />
        </mxCell>
        <mxCell id="Pv1H2nCwCAlQJ-ONCFIq-10" value="T9" style="rounded=0;whiteSpace=wrap;html=1;fillColor=#dae8fc;strokeColor=#6c8ebf;" vertex="1" parent="Pv1H2nCwCAlQJ-ONCFIq-17">
          <mxGeometry x="270" width="30" height="30" as="geometry" />
        </mxCell>
        <mxCell id="Pv1H2nCwCAlQJ-ONCFIq-11" value="T10" style="rounded=0;whiteSpace=wrap;html=1;fillColor=#dae8fc;strokeColor=#6c8ebf;" vertex="1" parent="Pv1H2nCwCAlQJ-ONCFIq-17">
          <mxGeometry x="300" width="30" height="30" as="geometry" />
        </mxCell>
        <mxCell id="Pv1H2nCwCAlQJ-ONCFIq-18" value="" style="group" vertex="1" connectable="0" parent="Pv1H2nCwCAlQJ-ONCFIq-61">
          <mxGeometry x="330" width="330" height="30" as="geometry" />
        </mxCell>
        <mxCell id="Pv1H2nCwCAlQJ-ONCFIq-19" value="T11" style="rounded=0;whiteSpace=wrap;html=1;" vertex="1" parent="Pv1H2nCwCAlQJ-ONCFIq-18">
          <mxGeometry width="30" height="30" as="geometry" />
        </mxCell>
        <mxCell id="Pv1H2nCwCAlQJ-ONCFIq-20" value="T12" style="rounded=0;whiteSpace=wrap;html=1;" vertex="1" parent="Pv1H2nCwCAlQJ-ONCFIq-18">
          <mxGeometry x="30" width="30" height="30" as="geometry" />
        </mxCell>
        <mxCell id="Pv1H2nCwCAlQJ-ONCFIq-21" value="T13" style="rounded=0;whiteSpace=wrap;html=1;" vertex="1" parent="Pv1H2nCwCAlQJ-ONCFIq-18">
          <mxGeometry x="60" width="30" height="30" as="geometry" />
        </mxCell>
        <mxCell id="Pv1H2nCwCAlQJ-ONCFIq-22" value="T14" style="rounded=0;whiteSpace=wrap;html=1;" vertex="1" parent="Pv1H2nCwCAlQJ-ONCFIq-18">
          <mxGeometry x="90" width="30" height="30" as="geometry" />
        </mxCell>
        <mxCell id="Pv1H2nCwCAlQJ-ONCFIq-23" value="T15" style="rounded=0;whiteSpace=wrap;html=1;" vertex="1" parent="Pv1H2nCwCAlQJ-ONCFIq-18">
          <mxGeometry x="120" width="30" height="30" as="geometry" />
        </mxCell>
        <mxCell id="Pv1H2nCwCAlQJ-ONCFIq-24" value="T16" style="rounded=0;whiteSpace=wrap;html=1;" vertex="1" parent="Pv1H2nCwCAlQJ-ONCFIq-18">
          <mxGeometry x="150" width="30" height="30" as="geometry" />
        </mxCell>
        <mxCell id="Pv1H2nCwCAlQJ-ONCFIq-25" value="T17" style="rounded=0;whiteSpace=wrap;html=1;" vertex="1" parent="Pv1H2nCwCAlQJ-ONCFIq-18">
          <mxGeometry x="180" width="30" height="30" as="geometry" />
        </mxCell>
        <mxCell id="Pv1H2nCwCAlQJ-ONCFIq-26" value="T18" style="rounded=0;whiteSpace=wrap;html=1;" vertex="1" parent="Pv1H2nCwCAlQJ-ONCFIq-18">
          <mxGeometry x="210" width="30" height="30" as="geometry" />
        </mxCell>
        <mxCell id="Pv1H2nCwCAlQJ-ONCFIq-27" value="T19" style="rounded=0;whiteSpace=wrap;html=1;" vertex="1" parent="Pv1H2nCwCAlQJ-ONCFIq-18">
          <mxGeometry x="240" width="30" height="30" as="geometry" />
        </mxCell>
        <mxCell id="Pv1H2nCwCAlQJ-ONCFIq-28" value="T20" style="rounded=0;whiteSpace=wrap;html=1;" vertex="1" parent="Pv1H2nCwCAlQJ-ONCFIq-18">
          <mxGeometry x="270" width="30" height="30" as="geometry" />
        </mxCell>
        <mxCell id="Pv1H2nCwCAlQJ-ONCFIq-29" value="T21" style="rounded=0;whiteSpace=wrap;html=1;" vertex="1" parent="Pv1H2nCwCAlQJ-ONCFIq-18">
          <mxGeometry x="300" width="30" height="30" as="geometry" />
        </mxCell>
        <mxCell id="Pv1H2nCwCAlQJ-ONCFIq-59" value="" style="group" vertex="1" connectable="0" parent="Pv1H2nCwCAlQJ-ONCFIq-61">
          <mxGeometry x="64" y="60" width="500" height="155" as="geometry" />
        </mxCell>
        <mxCell id="Pv1H2nCwCAlQJ-ONCFIq-44" value="当前位置词的表征" style="text;html=1;resizable=0;autosize=1;align=center;verticalAlign=middle;points=[];fillColor=none;strokeColor=none;rounded=0;" vertex="1" parent="Pv1H2nCwCAlQJ-ONCFIq-59">
          <mxGeometry x="10" y="135" width="110" height="20" as="geometry" />
        </mxCell>
        <mxCell id="Pv1H2nCwCAlQJ-ONCFIq-47" value="" style="group" vertex="1" connectable="0" parent="Pv1H2nCwCAlQJ-ONCFIq-59">
          <mxGeometry width="130" height="120" as="geometry" />
        </mxCell>
        <mxCell id="Pv1H2nCwCAlQJ-ONCFIq-34" value="E8" style="rounded=0;whiteSpace=wrap;html=1;fillColor=#eeeeee;strokeColor=#36393d;" vertex="1" parent="Pv1H2nCwCAlQJ-ONCFIq-47">
          <mxGeometry x="100" y="42" width="30" height="30" as="geometry" />
        </mxCell>
        <mxCell id="Pv1H2nCwCAlQJ-ONCFIq-35" value="" style="endArrow=classic;html=1;exitX=1;exitY=0.5;exitDx=0;exitDy=0;entryX=0;entryY=0.5;entryDx=0;entryDy=0;strokeWidth=0.1;" edge="1" parent="Pv1H2nCwCAlQJ-ONCFIq-47" source="Pv1H2nCwCAlQJ-ONCFIq-30" target="Pv1H2nCwCAlQJ-ONCFIq-34">
          <mxGeometry width="50" height="50" relative="1" as="geometry">
            <mxPoint x="290" y="150" as="sourcePoint" />
            <mxPoint x="340" y="100" as="targetPoint" />
          </mxGeometry>
        </mxCell>
        <mxCell id="Pv1H2nCwCAlQJ-ONCFIq-37" value="" style="endArrow=classic;html=1;exitX=1;exitY=0.5;exitDx=0;exitDy=0;strokeWidth=0.1;" edge="1" parent="Pv1H2nCwCAlQJ-ONCFIq-47" source="Pv1H2nCwCAlQJ-ONCFIq-31">
          <mxGeometry width="50" height="50" relative="1" as="geometry">
            <mxPoint x="290" y="150" as="sourcePoint" />
            <mxPoint x="100" y="57" as="targetPoint" />
          </mxGeometry>
        </mxCell>
        <mxCell id="Pv1H2nCwCAlQJ-ONCFIq-38" value="" style="endArrow=classic;html=1;exitX=1;exitY=0.5;exitDx=0;exitDy=0;entryX=0;entryY=0.5;entryDx=0;entryDy=0;strokeWidth=0.1;" edge="1" parent="Pv1H2nCwCAlQJ-ONCFIq-47" source="Pv1H2nCwCAlQJ-ONCFIq-32" target="Pv1H2nCwCAlQJ-ONCFIq-34">
          <mxGeometry width="50" height="50" relative="1" as="geometry">
            <mxPoint x="290" y="150" as="sourcePoint" />
            <mxPoint x="100" y="60" as="targetPoint" />
          </mxGeometry>
        </mxCell>
        <mxCell id="Pv1H2nCwCAlQJ-ONCFIq-39" value="" style="endArrow=classic;html=1;exitX=1;exitY=0.5;exitDx=0;exitDy=0;entryX=0;entryY=0.5;entryDx=0;entryDy=0;strokeWidth=0.1;" edge="1" parent="Pv1H2nCwCAlQJ-ONCFIq-47" source="Pv1H2nCwCAlQJ-ONCFIq-33" target="Pv1H2nCwCAlQJ-ONCFIq-34">
          <mxGeometry width="50" height="50" relative="1" as="geometry">
            <mxPoint x="290" y="150" as="sourcePoint" />
            <mxPoint x="100" y="60" as="targetPoint" />
          </mxGeometry>
        </mxCell>
        <mxCell id="Pv1H2nCwCAlQJ-ONCFIq-66" value="" style="group" vertex="1" connectable="0" parent="Pv1H2nCwCAlQJ-ONCFIq-47">
          <mxGeometry width="30" height="120" as="geometry" />
        </mxCell>
        <mxCell id="Pv1H2nCwCAlQJ-ONCFIq-30" value="E6" style="rounded=0;whiteSpace=wrap;html=1;" vertex="1" parent="Pv1H2nCwCAlQJ-ONCFIq-66">
          <mxGeometry width="30" height="30" as="geometry" />
        </mxCell>
        <mxCell id="Pv1H2nCwCAlQJ-ONCFIq-31" value="E7" style="rounded=0;whiteSpace=wrap;html=1;" vertex="1" parent="Pv1H2nCwCAlQJ-ONCFIq-66">
          <mxGeometry y="30" width="30" height="30" as="geometry" />
        </mxCell>
        <mxCell id="Pv1H2nCwCAlQJ-ONCFIq-32" value="E9" style="rounded=0;whiteSpace=wrap;html=1;" vertex="1" parent="Pv1H2nCwCAlQJ-ONCFIq-66">
          <mxGeometry y="60" width="30" height="30" as="geometry" />
        </mxCell>
        <mxCell id="Pv1H2nCwCAlQJ-ONCFIq-33" value="E10" style="rounded=0;whiteSpace=wrap;html=1;" vertex="1" parent="Pv1H2nCwCAlQJ-ONCFIq-66">
          <mxGeometry y="90" width="30" height="30" as="geometry" />
        </mxCell>
        <mxCell id="Pv1H2nCwCAlQJ-ONCFIq-52" value="" style="endArrow=classic;html=1;strokeWidth=0.1;exitX=1;exitY=0.5;exitDx=0;exitDy=0;" edge="1" parent="Pv1H2nCwCAlQJ-ONCFIq-59" source="Pv1H2nCwCAlQJ-ONCFIq-34">
          <mxGeometry width="50" height="50" relative="1" as="geometry">
            <mxPoint x="150" y="90" as="sourcePoint" />
            <mxPoint x="200" y="57" as="targetPoint" />
          </mxGeometry>
        </mxCell>
        <mxCell id="Pv1H2nCwCAlQJ-ONCFIq-55" value="" style="group" vertex="1" connectable="0" parent="Pv1H2nCwCAlQJ-ONCFIq-59">
          <mxGeometry x="200" y="30" width="120" height="60" as="geometry" />
        </mxCell>
        <mxCell id="Pv1H2nCwCAlQJ-ONCFIq-53" value="weight matrix" style="rounded=0;whiteSpace=wrap;html=1;strokeWidth=0.5;" vertex="1" parent="Pv1H2nCwCAlQJ-ONCFIq-55">
          <mxGeometry width="120" height="30" as="geometry" />
        </mxCell>
        <mxCell id="Pv1H2nCwCAlQJ-ONCFIq-54" value="embedding" style="rounded=0;whiteSpace=wrap;html=1;strokeWidth=0.5;" vertex="1" parent="Pv1H2nCwCAlQJ-ONCFIq-55">
          <mxGeometry y="30" width="120" height="30" as="geometry" />
        </mxCell>
        <mxCell id="Pv1H2nCwCAlQJ-ONCFIq-56" value="one hot label" style="rounded=0;whiteSpace=wrap;html=1;strokeWidth=0.5;" vertex="1" parent="Pv1H2nCwCAlQJ-ONCFIq-59">
          <mxGeometry x="380" y="45" width="120" height="30" as="geometry" />
        </mxCell>
        <mxCell id="Pv1H2nCwCAlQJ-ONCFIq-57" value="" style="endArrow=classic;html=1;strokeWidth=0.1;entryX=0;entryY=0.5;entryDx=0;entryDy=0;exitX=1;exitY=0;exitDx=0;exitDy=0;" edge="1" parent="Pv1H2nCwCAlQJ-ONCFIq-59" source="Pv1H2nCwCAlQJ-ONCFIq-54" target="Pv1H2nCwCAlQJ-ONCFIq-56">
          <mxGeometry width="50" height="50" relative="1" as="geometry">
            <mxPoint x="150" y="90" as="sourcePoint" />
            <mxPoint x="200" y="40" as="targetPoint" />
          </mxGeometry>
        </mxCell>
        <mxCell id="Pv1H2nCwCAlQJ-ONCFIq-58" value="预测 / 评估" style="text;html=1;resizable=0;autosize=1;align=center;verticalAlign=middle;points=[];fillColor=none;strokeColor=none;rounded=0;" vertex="1" parent="Pv1H2nCwCAlQJ-ONCFIq-59">
          <mxGeometry x="310" y="135" width="70" height="20" as="geometry" />
        </mxCell>
        <mxCell id="Pv1H2nCwCAlQJ-ONCFIq-60" value="逼近" style="text;html=1;resizable=0;autosize=1;align=center;verticalAlign=middle;points=[];fillColor=none;strokeColor=none;rounded=0;" vertex="1" parent="Pv1H2nCwCAlQJ-ONCFIq-61">
          <mxGeometry x="390" y="100" width="40" height="20" as="geometry" />
        </mxCell>
        <mxCell id="Pv1H2nCwCAlQJ-ONCFIq-76" value="" style="group" vertex="1" connectable="0" parent="1">
          <mxGeometry x="130" y="310" width="170" height="120" as="geometry" />
        </mxCell>
        <mxCell id="Pv1H2nCwCAlQJ-ONCFIq-67" value="" style="group" vertex="1" connectable="0" parent="Pv1H2nCwCAlQJ-ONCFIq-76">
          <mxGeometry width="30" height="120" as="geometry" />
        </mxCell>
        <mxCell id="Pv1H2nCwCAlQJ-ONCFIq-68" value="E6" style="rounded=0;whiteSpace=wrap;html=1;" vertex="1" parent="Pv1H2nCwCAlQJ-ONCFIq-67">
          <mxGeometry width="30" height="30" as="geometry" />
        </mxCell>
        <mxCell id="Pv1H2nCwCAlQJ-ONCFIq-69" value="E7" style="rounded=0;whiteSpace=wrap;html=1;" vertex="1" parent="Pv1H2nCwCAlQJ-ONCFIq-67">
          <mxGeometry y="30" width="30" height="30" as="geometry" />
        </mxCell>
        <mxCell id="Pv1H2nCwCAlQJ-ONCFIq-70" value="E9" style="rounded=0;whiteSpace=wrap;html=1;" vertex="1" parent="Pv1H2nCwCAlQJ-ONCFIq-67">
          <mxGeometry y="60" width="30" height="30" as="geometry" />
        </mxCell>
        <mxCell id="Pv1H2nCwCAlQJ-ONCFIq-71" value="E10" style="rounded=0;whiteSpace=wrap;html=1;" vertex="1" parent="Pv1H2nCwCAlQJ-ONCFIq-67">
          <mxGeometry y="90" width="30" height="30" as="geometry" />
        </mxCell>
        <mxCell id="Pv1H2nCwCAlQJ-ONCFIq-73" value="E8" style="rounded=0;whiteSpace=wrap;html=1;" vertex="1" parent="Pv1H2nCwCAlQJ-ONCFIq-76">
          <mxGeometry x="140" y="45" width="30" height="30" as="geometry" />
        </mxCell>
        <mxCell id="Pv1H2nCwCAlQJ-ONCFIq-74" value="" style="endArrow=classic;html=1;strokeWidth=0.1;exitX=1;exitY=0;exitDx=0;exitDy=0;entryX=0;entryY=0.5;entryDx=0;entryDy=0;" edge="1" parent="Pv1H2nCwCAlQJ-ONCFIq-76" source="Pv1H2nCwCAlQJ-ONCFIq-70" target="Pv1H2nCwCAlQJ-ONCFIq-73">
          <mxGeometry width="50" height="50" relative="1" as="geometry">
            <mxPoint x="280" y="30" as="sourcePoint" />
            <mxPoint x="330" y="-20" as="targetPoint" />
          </mxGeometry>
        </mxCell>
        <mxCell id="Pv1H2nCwCAlQJ-ONCFIq-75" value="均值" style="text;html=1;resizable=0;autosize=1;align=center;verticalAlign=middle;points=[];fillColor=none;strokeColor=none;rounded=0;" vertex="1" parent="Pv1H2nCwCAlQJ-ONCFIq-76">
          <mxGeometry x="60" y="40" width="40" height="20" as="geometry" />
        </mxCell>
        <mxCell id="Pv1H2nCwCAlQJ-ONCFIq-86" value="" style="group" vertex="1" connectable="0" parent="1">
          <mxGeometry x="380" y="310" width="170" height="120" as="geometry" />
        </mxCell>
        <mxCell id="Pv1H2nCwCAlQJ-ONCFIq-77" value="" style="group" vertex="1" connectable="0" parent="Pv1H2nCwCAlQJ-ONCFIq-86">
          <mxGeometry width="30" height="120" as="geometry" />
        </mxCell>
        <mxCell id="Pv1H2nCwCAlQJ-ONCFIq-78" value="E6" style="rounded=0;whiteSpace=wrap;html=1;" vertex="1" parent="Pv1H2nCwCAlQJ-ONCFIq-77">
          <mxGeometry width="30" height="30" as="geometry" />
        </mxCell>
        <mxCell id="Pv1H2nCwCAlQJ-ONCFIq-79" value="E7" style="rounded=0;whiteSpace=wrap;html=1;" vertex="1" parent="Pv1H2nCwCAlQJ-ONCFIq-77">
          <mxGeometry y="30" width="30" height="30" as="geometry" />
        </mxCell>
        <mxCell id="Pv1H2nCwCAlQJ-ONCFIq-80" value="E9" style="rounded=0;whiteSpace=wrap;html=1;" vertex="1" parent="Pv1H2nCwCAlQJ-ONCFIq-77">
          <mxGeometry y="60" width="30" height="30" as="geometry" />
        </mxCell>
        <mxCell id="Pv1H2nCwCAlQJ-ONCFIq-81" value="E10" style="rounded=0;whiteSpace=wrap;html=1;" vertex="1" parent="Pv1H2nCwCAlQJ-ONCFIq-77">
          <mxGeometry y="90" width="30" height="30" as="geometry" />
        </mxCell>
        <mxCell id="Pv1H2nCwCAlQJ-ONCFIq-82" value="E8" style="rounded=0;whiteSpace=wrap;html=1;" vertex="1" parent="Pv1H2nCwCAlQJ-ONCFIq-86">
          <mxGeometry x="140" y="45" width="30" height="30" as="geometry" />
        </mxCell>
        <mxCell id="Pv1H2nCwCAlQJ-ONCFIq-83" value="" style="endArrow=classic;html=1;strokeWidth=0.1;exitX=1;exitY=0;exitDx=0;exitDy=0;entryX=0;entryY=0.5;entryDx=0;entryDy=0;" edge="1" parent="Pv1H2nCwCAlQJ-ONCFIq-86" source="Pv1H2nCwCAlQJ-ONCFIq-80" target="Pv1H2nCwCAlQJ-ONCFIq-82">
          <mxGeometry width="50" height="50" relative="1" as="geometry">
            <mxPoint x="280" y="30" as="sourcePoint" />
            <mxPoint x="330" y="-20" as="targetPoint" />
          </mxGeometry>
        </mxCell>
        <mxCell id="Pv1H2nCwCAlQJ-ONCFIq-84" value="加权和" style="text;html=1;resizable=0;autosize=1;align=center;verticalAlign=middle;points=[];fillColor=none;strokeColor=none;rounded=0;" vertex="1" parent="Pv1H2nCwCAlQJ-ONCFIq-86">
          <mxGeometry x="55" y="40" width="50" height="20" as="geometry" />
        </mxCell>
        <mxCell id="Pv1H2nCwCAlQJ-ONCFIq-85" value="权重系数如何获得？" style="text;html=1;resizable=0;autosize=1;align=center;verticalAlign=middle;points=[];fillColor=none;strokeColor=none;rounded=0;" vertex="1" parent="Pv1H2nCwCAlQJ-ONCFIq-86">
          <mxGeometry x="40" y="80" width="120" height="20" as="geometry" />
        </mxCell>
        <mxCell id="Pv1H2nCwCAlQJ-ONCFIq-138" value="" style="group" vertex="1" connectable="0" parent="1">
          <mxGeometry x="110" y="520" width="520" height="215" as="geometry" />
        </mxCell>
        <mxCell id="Pv1H2nCwCAlQJ-ONCFIq-127" value="" style="group" vertex="1" connectable="0" parent="Pv1H2nCwCAlQJ-ONCFIq-138">
          <mxGeometry x="10" y="75" width="510" height="140" as="geometry" />
        </mxCell>
        <mxCell id="Pv1H2nCwCAlQJ-ONCFIq-94" value="E8" style="rounded=0;whiteSpace=wrap;html=1;fillColor=#cce5ff;strokeColor=#36393d;" vertex="1" parent="Pv1H2nCwCAlQJ-ONCFIq-127">
          <mxGeometry y="45" width="30" height="30" as="geometry" />
        </mxCell>
        <mxCell id="Pv1H2nCwCAlQJ-ONCFIq-105" value="" style="group;fillColor=#ffff88;strokeColor=#36393d;" vertex="1" connectable="0" parent="Pv1H2nCwCAlQJ-ONCFIq-127">
          <mxGeometry x="70" y="45" width="120" height="30" as="geometry" />
        </mxCell>
        <mxCell id="Pv1H2nCwCAlQJ-ONCFIq-101" value="W6" style="rounded=0;whiteSpace=wrap;html=1;fillColor=#ffff88;strokeColor=#36393d;" vertex="1" parent="Pv1H2nCwCAlQJ-ONCFIq-105">
          <mxGeometry width="30" height="30" as="geometry" />
        </mxCell>
        <mxCell id="Pv1H2nCwCAlQJ-ONCFIq-102" value="W7" style="rounded=0;whiteSpace=wrap;html=1;fillColor=#ffff88;strokeColor=#36393d;" vertex="1" parent="Pv1H2nCwCAlQJ-ONCFIq-105">
          <mxGeometry x="30" width="30" height="30" as="geometry" />
        </mxCell>
        <mxCell id="Pv1H2nCwCAlQJ-ONCFIq-103" value="W9" style="rounded=0;whiteSpace=wrap;html=1;fillColor=#ffff88;strokeColor=#36393d;" vertex="1" parent="Pv1H2nCwCAlQJ-ONCFIq-105">
          <mxGeometry x="60" width="30" height="30" as="geometry" />
        </mxCell>
        <mxCell id="Pv1H2nCwCAlQJ-ONCFIq-104" value="W10" style="rounded=0;whiteSpace=wrap;html=1;fillColor=#ffff88;strokeColor=#36393d;" vertex="1" parent="Pv1H2nCwCAlQJ-ONCFIq-105">
          <mxGeometry x="90" width="30" height="30" as="geometry" />
        </mxCell>
        <mxCell id="Pv1H2nCwCAlQJ-ONCFIq-106" value="" style="group" vertex="1" connectable="0" parent="Pv1H2nCwCAlQJ-ONCFIq-127">
          <mxGeometry x="234" y="45" width="120" height="30" as="geometry" />
        </mxCell>
        <mxCell id="Pv1H2nCwCAlQJ-ONCFIq-107" value="EW6" style="rounded=0;whiteSpace=wrap;html=1;" vertex="1" parent="Pv1H2nCwCAlQJ-ONCFIq-106">
          <mxGeometry width="30" height="30" as="geometry" />
        </mxCell>
        <mxCell id="Pv1H2nCwCAlQJ-ONCFIq-108" value="EW7" style="rounded=0;whiteSpace=wrap;html=1;" vertex="1" parent="Pv1H2nCwCAlQJ-ONCFIq-106">
          <mxGeometry x="30" width="30" height="30" as="geometry" />
        </mxCell>
        <mxCell id="Pv1H2nCwCAlQJ-ONCFIq-109" value="EW9" style="rounded=0;whiteSpace=wrap;html=1;" vertex="1" parent="Pv1H2nCwCAlQJ-ONCFIq-106">
          <mxGeometry x="60" width="30" height="30" as="geometry" />
        </mxCell>
        <mxCell id="Pv1H2nCwCAlQJ-ONCFIq-110" value="EW10" style="rounded=0;whiteSpace=wrap;html=1;" vertex="1" parent="Pv1H2nCwCAlQJ-ONCFIq-106">
          <mxGeometry x="90" width="30" height="30" as="geometry" />
        </mxCell>
        <mxCell id="Pv1H2nCwCAlQJ-ONCFIq-112" value="" style="group;fillColor=#ffcc99;strokeColor=#36393d;" vertex="1" connectable="0" parent="Pv1H2nCwCAlQJ-ONCFIq-127">
          <mxGeometry x="400" width="30" height="120" as="geometry" />
        </mxCell>
        <mxCell id="Pv1H2nCwCAlQJ-ONCFIq-113" value="E6" style="rounded=0;whiteSpace=wrap;html=1;fillColor=#ffcc99;strokeColor=#36393d;" vertex="1" parent="Pv1H2nCwCAlQJ-ONCFIq-112">
          <mxGeometry width="30" height="30" as="geometry" />
        </mxCell>
        <mxCell id="Pv1H2nCwCAlQJ-ONCFIq-114" value="E7" style="rounded=0;whiteSpace=wrap;html=1;fillColor=#ffcc99;strokeColor=#36393d;" vertex="1" parent="Pv1H2nCwCAlQJ-ONCFIq-112">
          <mxGeometry y="30" width="30" height="30" as="geometry" />
        </mxCell>
        <mxCell id="Pv1H2nCwCAlQJ-ONCFIq-115" value="E9" style="rounded=0;whiteSpace=wrap;html=1;fillColor=#ffcc99;strokeColor=#36393d;" vertex="1" parent="Pv1H2nCwCAlQJ-ONCFIq-112">
          <mxGeometry y="60" width="30" height="30" as="geometry" />
        </mxCell>
        <mxCell id="Pv1H2nCwCAlQJ-ONCFIq-116" value="E10" style="rounded=0;whiteSpace=wrap;html=1;fillColor=#ffcc99;strokeColor=#36393d;" vertex="1" parent="Pv1H2nCwCAlQJ-ONCFIq-112">
          <mxGeometry y="90" width="30" height="30" as="geometry" />
        </mxCell>
        <mxCell id="Pv1H2nCwCAlQJ-ONCFIq-117" value="E8&#39;" style="rounded=0;whiteSpace=wrap;html=1;fillColor=#008a00;strokeColor=#005700;fontColor=#ffffff;" vertex="1" parent="Pv1H2nCwCAlQJ-ONCFIq-127">
          <mxGeometry x="480" y="45" width="30" height="30" as="geometry" />
        </mxCell>
        <mxCell id="Pv1H2nCwCAlQJ-ONCFIq-118" value="X" style="text;html=1;resizable=0;autosize=1;align=center;verticalAlign=middle;points=[];fillColor=none;strokeColor=none;rounded=0;" vertex="1" parent="Pv1H2nCwCAlQJ-ONCFIq-127">
          <mxGeometry x="40" y="50" width="20" height="20" as="geometry" />
        </mxCell>
        <mxCell id="Pv1H2nCwCAlQJ-ONCFIq-119" value="=" style="text;html=1;resizable=0;autosize=1;align=center;verticalAlign=middle;points=[];fillColor=none;strokeColor=none;rounded=0;" vertex="1" parent="Pv1H2nCwCAlQJ-ONCFIq-127">
          <mxGeometry x="200" y="50" width="20" height="20" as="geometry" />
        </mxCell>
        <mxCell id="Pv1H2nCwCAlQJ-ONCFIq-122" value="" style="strokeWidth=2;html=1;shape=mxgraph.flowchart.annotation_2;align=left;labelPosition=right;pointerEvents=1;rotation=-90;" vertex="1" parent="Pv1H2nCwCAlQJ-ONCFIq-127">
          <mxGeometry x="150" y="-45" width="25" height="290" as="geometry" />
        </mxCell>
        <mxCell id="Pv1H2nCwCAlQJ-ONCFIq-123" value="获得权重系数" style="text;html=1;resizable=0;autosize=1;align=center;verticalAlign=middle;points=[];fillColor=none;strokeColor=none;rounded=0;" vertex="1" parent="Pv1H2nCwCAlQJ-ONCFIq-127">
          <mxGeometry x="125" y="120" width="90" height="20" as="geometry" />
        </mxCell>
        <mxCell id="Pv1H2nCwCAlQJ-ONCFIq-125" value="X" style="text;html=1;resizable=0;autosize=1;align=center;verticalAlign=middle;points=[];fillColor=none;strokeColor=none;rounded=0;" vertex="1" parent="Pv1H2nCwCAlQJ-ONCFIq-127">
          <mxGeometry x="370" y="50" width="20" height="20" as="geometry" />
        </mxCell>
        <mxCell id="Pv1H2nCwCAlQJ-ONCFIq-126" value="=" style="text;html=1;resizable=0;autosize=1;align=center;verticalAlign=middle;points=[];fillColor=none;strokeColor=none;rounded=0;" vertex="1" parent="Pv1H2nCwCAlQJ-ONCFIq-127">
          <mxGeometry x="448" y="50" width="20" height="20" as="geometry" />
        </mxCell>
        <mxCell id="Pv1H2nCwCAlQJ-ONCFIq-135" value="" style="endArrow=classic;html=1;strokeWidth=0.1;entryX=0.5;entryY=1;entryDx=0;entryDy=0;exitX=0.5;exitY=0;exitDx=0;exitDy=0;" edge="1" parent="Pv1H2nCwCAlQJ-ONCFIq-138" source="Pv1H2nCwCAlQJ-ONCFIq-94" target="Pv1H2nCwCAlQJ-ONCFIq-129">
          <mxGeometry width="50" height="50" relative="1" as="geometry">
            <mxPoint x="30" y="120" as="sourcePoint" />
            <mxPoint x="330" y="-10" as="targetPoint" />
          </mxGeometry>
        </mxCell>
        <mxCell id="Pv1H2nCwCAlQJ-ONCFIq-136" value="" style="endArrow=classic;html=1;strokeWidth=0.1;exitX=0;exitY=0;exitDx=0;exitDy=0;entryX=0.5;entryY=1;entryDx=0;entryDy=0;" edge="1" parent="Pv1H2nCwCAlQJ-ONCFIq-138" source="Pv1H2nCwCAlQJ-ONCFIq-103" target="Pv1H2nCwCAlQJ-ONCFIq-131">
          <mxGeometry width="50" height="50" relative="1" as="geometry">
            <mxPoint x="280" y="40" as="sourcePoint" />
            <mxPoint x="330" y="-10" as="targetPoint" />
          </mxGeometry>
        </mxCell>
        <mxCell id="Pv1H2nCwCAlQJ-ONCFIq-129" value="query" style="rounded=0;whiteSpace=wrap;html=1;strokeWidth=0.5;" vertex="1" parent="Pv1H2nCwCAlQJ-ONCFIq-138">
          <mxGeometry width="50" height="30" as="geometry" />
        </mxCell>
        <mxCell id="Pv1H2nCwCAlQJ-ONCFIq-130" value="value" style="rounded=0;whiteSpace=wrap;html=1;strokeWidth=0.5;" vertex="1" parent="Pv1H2nCwCAlQJ-ONCFIq-138">
          <mxGeometry x="399" width="54" height="30" as="geometry" />
        </mxCell>
        <mxCell id="Pv1H2nCwCAlQJ-ONCFIq-131" value="key" style="rounded=0;whiteSpace=wrap;html=1;strokeWidth=0.5;" vertex="1" parent="Pv1H2nCwCAlQJ-ONCFIq-138">
          <mxGeometry x="115" width="50" height="30" as="geometry" />
        </mxCell>
        <mxCell id="Pv1H2nCwCAlQJ-ONCFIq-137" value="" style="endArrow=classic;html=1;strokeWidth=0.1;exitX=0.5;exitY=0;exitDx=0;exitDy=0;entryX=0.5;entryY=1;entryDx=0;entryDy=0;" edge="1" parent="Pv1H2nCwCAlQJ-ONCFIq-138" source="Pv1H2nCwCAlQJ-ONCFIq-113" target="Pv1H2nCwCAlQJ-ONCFIq-130">
          <mxGeometry width="50" height="50" relative="1" as="geometry">
            <mxPoint x="280" y="40" as="sourcePoint" />
            <mxPoint x="330" y="-10" as="targetPoint" />
          </mxGeometry>
        </mxCell>
      </root>
    </mxGraphModel>
  </diagram>
</mxfile>
